<svg width="300" height="300" viewBox="0 0 300 300" fill="none" xmlns="http://www.w3.org/2000/svg">
<path d="M186.5 242.976H111.092C107.054 242.976 103.001 242.431 99.2439 240.952C66.7233 228.146 57.4732 200.068 57 186.976V76.337C57 68.9722 58.9138 60.5862 65.7701 57.8972C70.3915 56.0847 73.9038 57.7738 75.5 59.4764L151.5 122.476C172.167 104.476 215.8 66.6764 225 59.4764C231.498 54.3907 236.384 57.9863 239.338 62.651C241.617 66.2483 242 70.6274 242 74.8857V177.923C242 183.95 241.615 190.021 239.905 195.801C229.646 230.457 200.692 241.742 186.5 242.976Z" fill="url(#paint0_linear_2001_2)"/>
<path d="M238 200.5C231.428 214.695 226.152 222.973 217.348 226.697C206.831 231.145 195.344 224.866 186.805 217.284L142 177.5L149.205 176.446C157.914 175.171 166.132 171.62 173.029 166.152L227.718 122.791C230.779 120.364 234.681 119.257 238.561 119.713C239.973 119.879 241.064 121.03 241.145 122.45C242.564 147.303 243.418 188.503 238 200.5Z" fill="url(#paint1_linear_2001_2)"/>
<path d="M141.5 176L120 158.5L132.714 151.746C134.898 150.586 136.944 149.184 138.815 147.566L230.346 68.43C230.994 67.87 232 68.3302 232 69.1865V115.797C232 118.776 230.682 121.593 228.382 123.486C206.95 141.118 168.063 172.224 159 176C149.4 180 143.333 177.667 141.5 176Z" fill="white"/>
<path d="M67 116.653V69.1742C67 68.3199 68.0021 67.859 68.6508 68.415L140.5 130C136.333 133.167 126.9 140.4 122.5 144C112.5 152.4 101.333 147.5 97 144L69.2048 121.301C67.8095 120.161 67 118.455 67 116.653Z" fill="white"/>
<defs>
<linearGradient id="paint0_linear_2001_2" x1="138.5" y1="38" x2="-78" y2="295.5" gradientUnits="userSpaceOnUse">
<stop offset="0.329224" stop-color="#BB11FD"/>
<stop offset="1" stop-color="#FBD309" stop-opacity="0.5"/>
</linearGradient>
<linearGradient id="paint1_linear_2001_2" x1="192" y1="129" x2="127.382" y2="213.446" gradientUnits="userSpaceOnUse">
<stop stop-color="#BB11FD"/>
<stop offset="0.349429" stop-color="#D98FF6" stop-opacity="0.3"/>
<stop offset="0.908996" stop-color="#320543"/>
</linearGradient>
</defs>
</svg>
