<?xml version="1.0"?><svg version="1.2" baseProfile="tiny-ps" viewBox="0 0 300 300" xmlns="http://www.w3.org/2000/svg" xmlns:xlink="http://www.w3.org/1999/xlink"><title>Code With Arash</title><g><g fill="#fff" transform="matrix(.1 0 0 -.1 0 300)"><path d="m643 2410-32-19-18-33-18-33-3-600-3-600 11-60 12-60 32-70c42-90 101-168 174-228l57-48 84-42 84-42 421-3 421-4 55 12 55 12 85 40 85 41 80 81 81 81 32 62c18 34 43 88 55 120l21 58 4 615 3 614-16 43-17 43-29 21-30 21-31-6-31-6-86-72c-47-40-216-184-374-321s-292-247-296-245c-5 2-174 140-377 308-202 168-379 313-393 322-34 23-59 22-98-2z"/></g><g fill="#e195fe" transform="matrix(.1 0 0 -.1 0 300)"><path d="m643 2410-32-19-18-33-18-33-3-600-3-600 11-60 12-60 32-70c42-90 101-168 174-228l57-48 84-42 84-42 421-3 421-4 55 12 55 12 85 40 85 41 80 81 81 81 32 62c18 34 43 88 55 120l21 58 4 615 3 614-16 43-17 43-29 21-30 21-31-6-31-6-86-72c-47-40-216-184-374-321s-292-247-296-245c-5 2-174 140-377 308-202 168-379 313-393 322-34 23-59 22-98-2zm402-404 355-305-72-58c-40-31-94-72-121-90l-49-33h-113l-40 23c-54 31-312 244-325 267l-10 19v481h10c6 0 170-137 365-304zm1275 65v-240l-9-24-9-24-104-85c-177-145-430-341-518-401l-85-57-55-12-56-11-26 6-26 7-105 85c-58 46-108 88-111 93l-5 9 77 42 77 42 465 404c256 222 471 404 478 404l12 1v-239z"/></g><g fill="#cb3ec5" transform="matrix(.1 0 0 -.1 0 300)"><path d="m643 2410-32-19-18-33-18-33-3-600-3-600 11-60 12-60 32-70c42-90 101-168 174-228l57-48 84-42 84-42 421-3 421-4 55 12 55 12 85 40 85 41 80 81 81 81 32 62c18 34 43 88 55 120l21 58 4 615 3 614-16 43-17 43-29 21-30 21-31-6-31-6-86-72c-47-40-216-184-374-321s-292-247-296-245c-5 2-174 140-377 308-202 168-379 313-393 322-34 23-59 22-98-2zm402-400c195-167 354-308 353-312-2-4-49-43-106-87l-102-80-36-11-36-12-40 6c-22 4-54 14-72 23-33 17-289 222-318 256l-18 19v510l10-4c5-1 169-140 365-308zm1275 58-1-253-12-22c-14-25-399-337-556-450-58-42-128-86-155-99l-51-24h-100l-26 18c-14 9-69 53-123 96l-97 79 13 9c7 5 42 24 78 42l65 34 475 411c261 226 478 411 483 411h7v-252z"/></g><g fill="#c02ce5" transform="matrix(.1 0 0 -.1 0 300)"><path d="m643 2410-32-19-18-33-18-33-3-479-3-479 33-33c18-18 36-34 40-34s24-15 45-34 63-55 93-80c30-26 65-55 77-66s24-20 27-20c5 0 59-47 127-112 22-21 44-38 49-38 6 0 10-4 10-10 0-5 12-16 28-24 15-8 49-35 76-60 26-25 50-46 52-46 5 0 54-42 96-82 15-15 28-25 28-22 0 4 13-7 28-22 15-16 43-40 61-54 19-14 41-33 50-42l15-18h381l55 15c30 8 89 31 130 51l75 37 80 81 81 81 32 62c18 34 43 88 55 120l21 58 4 615 3 614-16 43-17 43-29 21-30 21-31-6-31-6-86-72c-47-40-216-184-374-321s-292-247-296-245c-5 2-174 140-377 308-202 168-379 313-393 322-34 23-59 22-98-2zm402-400c195-167 354-308 353-312-2-4-49-43-106-87l-102-80-36-11-36-12-40 6c-22 4-54 14-72 23-33 17-289 222-318 256l-18 19v510l10-4c5-1 169-140 365-308zm1275 58-1-253-12-22c-22-40-559-462-688-541l-37-22-47-9-47-9-32 9-31 9-100 81c-55 44-106 86-113 93l-13 13 79 41 78 41 475 410c261 226 477 411 482 411h7v-252z"/></g><g fill="#9e36c6" transform="matrix(.1 0 0 -.1 0 300)"><path d="m643 2410-32-19-18-33-18-33-3-321-3-322 23-25c13-13 44-41 70-60 26-20 56-44 67-54 10-10 41-36 67-58s56-48 66-57c10-10 21-18 26-18 4 0 19-12 33-27 14-16 40-39 59-53 18-14 41-33 51-42s44-38 76-64 67-55 78-65c11-9 52-43 90-75 39-32 72-60 75-64 3-3 30-25 60-50s60-49 66-55c6-5 33-28 60-50s59-50 72-63c13-12 25-22 28-22 2 0 20-16 40-35 19-19 37-35 40-35 5 0 89-69 143-117l25-22 26 6c56 13 118 37 175 66l60 31 80 81 81 80 32 62c18 34 43 88 55 120l21 58 4 615 3 614-16 43-17 43-29 21-30 21-31-6-31-6-86-72c-47-40-216-184-374-321s-292-247-296-245c-5 2-174 140-377 308-202 168-379 313-393 322-34 23-59 22-98-2zm402-399c195-167 355-307 355-311 0-12-198-160-235-176-19-7-49-14-67-14h-33l-43 20-43 19-154 127-155 126v520l10-4c6-2 170-140 365-307zm1275 52v-258l-18-21c-19-24-295-250-449-368l-102-78 6-14 5-14 9 6 9 5v-10c0-6 6-11 13-11s23-13 37-29c13-17 27-28 30-26s19-8 36-21c16-14 40-34 54-45 14-10 43-33 65-50s51-39 65-50c14-10 56-43 94-71 37-29 78-60 90-68 13-8 31-23 40-33l18-17-25-43c-14-23-40-55-58-72-17-16-29-25-26-19l7 12-25 16c-13 9-111 83-217 164-106 82-235 180-286 220l-93 71-27-10c-27-10-104-15-132-8-8 2-19 9-25 15-5 6-56 48-112 94-57 46-103 84-103 86s36 22 79 44l80 41 473 410c260 225 476 409 481 409h7v-257z"/></g><g fill="#be1bfc" transform="matrix(.1 0 0 -.1 0 300)"><path d="m643 2410-32-19-18-33-18-33-3-321-3-322 23-25c13-13 44-41 70-60 26-20 56-44 67-54 10-10 41-36 67-58s56-48 66-57c10-10 21-18 26-18 4 0 19-12 33-27 14-16 40-39 59-53 18-14 41-33 51-42s44-38 76-64 67-55 78-65c11-9 52-43 90-75 39-32 72-60 75-64 3-3 30-25 60-50s60-49 66-55c6-5 33-28 60-50s59-50 72-63c13-12 25-22 28-22 2 0 20-16 40-35 19-19 37-35 40-35 5 0 89-69 143-117l25-22 26 6c56 13 118 37 175 66l60 31 80 81 81 80 32 62c18 34 43 88 55 120l21 58 4 615 3 614-16 43-17 43-29 21-30 21-31-6-31-6-86-72c-47-40-216-184-374-321s-292-247-296-245c-5 2-174 140-377 308-202 168-379 313-393 322-34 23-59 22-98-2zm402-399c195-167 355-307 355-311 0-12-198-160-235-176-19-7-49-14-67-14h-33l-43 20-43 19-154 127-155 126v520l10-4c6-2 170-140 365-307zm1275 52v-258l-18-21c-19-24-295-250-449-368l-102-78 6-14 5-14 9 6 9 5v-10c0-6 6-11 13-11s23-13 37-29c13-17 27-28 30-26s19-8 36-21c16-14 40-34 54-45 14-10 43-33 65-50s51-39 65-50c14-10 56-43 94-71 37-29 78-60 90-68 13-8 30-23 40-32l17-17-16-31c-24-47-75-99-116-121l-38-19h-112l-55 26-54 25-132 117c-228 200-377 333-380 342-2 4-46 42-98 85-52 42-101 83-109 90l-13 13 80 42 81 41 473 410c260 225 476 409 481 409h7v-257z"/></g></g></svg>